<svg width="24" height="24" viewBox="0 0 24 24" fill="none" xmlns="http://www.w3.org/2000/svg">
<g id="pepicons-pop:countdown">
<g id="Group">
<path id="Vector" fill-rule="evenodd" clip-rule="evenodd" d="M11.4 3.60002C11.4 3.28176 11.5264 2.97654 11.7515 2.7515C11.9765 2.52645 12.2817 2.40002 12.6 2.40002C14.4987 2.40002 16.3548 2.96305 17.9335 4.01792C19.5122 5.07278 20.7426 6.57209 21.4692 8.32626C22.1958 10.0804 22.386 12.0107 22.0155 13.8729C21.6451 15.7351 20.7308 17.4457 19.3882 18.7882C18.0456 20.1308 16.3351 21.0451 14.4729 21.4156C12.6106 21.786 10.6804 21.5959 8.92624 20.8693C7.17207 20.1427 5.67275 18.9122 4.61789 17.3335C3.56303 15.7548 3 13.8987 3 12C3 11.6818 3.12643 11.3765 3.35147 11.1515C3.57652 10.9265 3.88174 10.8 4.2 10.8C4.51826 10.8 4.82348 10.9265 5.04853 11.1515C5.27357 11.3765 5.4 11.6818 5.4 12C5.4 13.4241 5.82227 14.8161 6.61342 16.0001C7.40457 17.1842 8.52905 18.107 9.84468 18.652C11.1603 19.1969 12.608 19.3395 14.0047 19.0617C15.4013 18.7839 16.6842 18.0981 17.6912 17.0912C18.6981 16.0843 19.3838 14.8013 19.6617 13.4047C19.9395 12.008 19.7969 10.5603 19.2519 9.2447C18.707 7.92908 17.7841 6.80459 16.6001 6.01344C15.4161 5.2223 14.024 4.80002 12.6 4.80002C12.2817 4.80002 11.9765 4.6736 11.7515 4.44855C11.5264 4.22351 11.4 3.91828 11.4 3.60002Z" fill="#FFDE2F"/>
<path id="Vector_2" fill-rule="evenodd" clip-rule="evenodd" d="M7.67335 13.7364C7.81546 13.4518 7.83879 13.1225 7.73821 12.8208C7.63763 12.519 7.42137 12.2695 7.13695 12.1272L4.73695 10.9272C4.59584 10.8553 4.44189 10.812 4.28398 10.7999C4.12607 10.7878 3.96733 10.8071 3.8169 10.8566C3.66647 10.9061 3.52733 10.9849 3.40751 11.0885C3.28769 11.192 3.18955 11.3183 3.11875 11.46C3.04796 11.6016 3.00591 11.7559 2.99502 11.9139C2.98414 12.0719 3.00464 12.2305 3.05534 12.3805C3.10604 12.5306 3.18594 12.6691 3.29043 12.7881C3.39492 12.9071 3.52194 13.0043 3.66415 13.074L6.06415 14.274C6.34885 14.416 6.67829 14.4391 6.98005 14.3383C7.28181 14.2375 7.53119 14.021 7.67335 13.7364Z" fill="#FFDE2F"/>
<path id="Vector_3" d="M10.2 4.2C10.2 4.51826 10.0736 4.82348 9.84853 5.04853C9.62348 5.27357 9.31826 5.4 9 5.4C8.68174 5.4 8.37652 5.27357 8.15147 5.04853C7.92643 4.82348 7.8 4.51826 7.8 4.2C7.8 3.88174 7.92643 3.57652 8.15147 3.35147C8.37652 3.12643 8.68174 3 9 3C9.31826 3 9.62348 3.12643 9.84853 3.35147C10.0736 3.57652 10.2 3.88174 10.2 4.2ZM7.2 6C7.2 6.31826 7.07357 6.62348 6.84853 6.84853C6.62348 7.07357 6.31826 7.2 6 7.2C5.68174 7.2 5.37652 7.07357 5.15147 6.84853C4.92643 6.62348 4.8 6.31826 4.8 6C4.8 5.68174 4.92643 5.37652 5.15147 5.15147C5.37652 4.92643 5.68174 4.8 6 4.8C6.31826 4.8 6.62348 4.92643 6.84853 5.15147C7.07357 5.37652 7.2 5.68174 7.2 6ZM5.4 9C5.4 9.31826 5.27357 9.62348 5.04853 9.84853C4.82348 10.0736 4.51826 10.2 4.2 10.2C3.88174 10.2 3.57652 10.0736 3.35147 9.84853C3.12643 9.62348 3 9.31826 3 9C3 8.68174 3.12643 8.37652 3.35147 8.15147C3.57652 7.92643 3.88174 7.8 4.2 7.8C4.51826 7.8 4.82348 7.92643 5.04853 8.15147C5.27357 8.37652 5.4 8.68174 5.4 9Z" fill="#FFDE2F"/>
<path id="Vector_4" fill-rule="evenodd" clip-rule="evenodd" d="M5.0485 11.1517C5.27346 11.3767 5.39984 11.6819 5.39984 12.0001C5.39984 12.3183 5.27346 12.6234 5.0485 12.8485L3.2485 14.6485C3.02218 14.8671 2.71905 14.988 2.40442 14.9853C2.08978 14.9825 1.78881 14.8563 1.56632 14.6339C1.34383 14.4114 1.21762 14.1104 1.21489 13.7958C1.21216 13.4811 1.33311 13.178 1.5517 12.9517L3.3517 11.1517C3.57673 10.9267 3.8819 10.8003 4.2001 10.8003C4.5183 10.8003 4.82346 10.9267 5.0485 11.1517ZM12.6001 7.20007C12.9184 7.20007 13.2236 7.3265 13.4486 7.55155C13.6737 7.77659 13.8001 8.08181 13.8001 8.40007V12.0001C13.8001 12.3183 13.6737 12.6236 13.4486 12.8486C13.2236 13.0736 12.9184 13.2001 12.6001 13.2001C12.2818 13.2001 11.9766 13.0736 11.7516 12.8486C11.5265 12.6236 11.4001 12.3183 11.4001 12.0001V8.40007C11.4001 8.08181 11.5265 7.77659 11.7516 7.55155C11.9766 7.3265 12.2818 7.20007 12.6001 7.20007Z" fill="#FFDE2F"/>
<path id="Vector_5" fill-rule="evenodd" clip-rule="evenodd" d="M17.3984 12C17.3984 12.3183 17.272 12.6235 17.047 12.8486C16.8219 13.0736 16.5167 13.2 16.1984 13.2H12.5984C12.2802 13.2 11.975 13.0736 11.7499 12.8486C11.5249 12.6235 11.3984 12.3183 11.3984 12C11.3984 11.6818 11.5249 11.3766 11.7499 11.1515C11.975 10.9265 12.2802 10.8 12.5984 10.8H16.1984C16.5167 10.8 16.8219 10.9265 17.047 11.1515C17.272 11.3766 17.3984 11.6818 17.3984 12Z" fill="#FFDE2F"/>
</g>
</g>
</svg>
